<svg id="Capa_1" enable-background="new 0 0 486 486" height="512" viewBox="0 0 486 486" width="512" xmlns="http://www.w3.org/2000/svg"><g><path d="m358.721.079-52.953 52.929 11.219 31.219 31.219 11.219 36.471-16.469 16.471-36.471z" fill="#3e4f55"/><path d="m401.148 42.506-52.942 52.94.599 20.6 20.615.614 35.191-15.191 17.75-37.75z" fill="#596c76"/><path d="m369.42 116.66.598 20.599 20.615.614 36.471-16.471 16.469-36.47-21.212-21.213z" fill="#3e4f55"/><path d="m486 127.358-42.427-42.426-52.94 52.941 11.207 31.207 31.207 11.207z" fill="#303d42"/><path d="m305.768 53.008-42.438 42.416 21.844 41.843 41.797 21.797.022.022 30.868-20.867 11.559-21.559z" fill="#f1f5fd"/><path d="m326.993 159.086 14.835 34.835 48.782 28.782 42.437-42.416-63.627-63.627z" fill="#dce6f4"/><path d="m263.33 95.424-84.873 84.833 15.682 35.681 48.001 28.002 55.721-35.721 29.132-49.133z" fill="#ffd92e"/><path d="m242.14 243.94 12.999 42.999 50.598 20.596 84.873-84.832-63.617-63.617z" fill="#fec000"/><path d="m279.231 174.964-21.213 21.213 15.942 15.942 20.859-.858.354-20.355z" fill="#fec000"/><path d="m277.505 198.225h30v22.453h-30z" fill="#ff9000" transform="matrix(.707 -.707 .707 .707 -62.432 268.179)"/><path d="m178.457 180.257c-8.438 8.434-143.639 143.57-152.097 152.024-35.146 35.146-35.148 92.131 0 127.279.026.026.055.051.081.077l135.044-115.044 80.655-100.653c-7.982-7.983-55.732-55.733-63.683-63.683z" fill="#ff7038"/><path d="m242.14 243.94c-8.542 8.542-208.452 208.451-215.698 215.698 35.13 35.043 92.05 35.071 127.198-.077 8.441-8.438 143.656-143.588 152.097-152.025z" fill="#ff405c"/></g></svg>